# Sample basket-handle arch bridge OBJ for textbook embedding
# Coordinates use bridge model space: x longitudinal, y transverse, z height.
o deck_box
v 0 -5 -0.5
v 50 -5 -0.5
v 50 5 -0.5
v 0 5 -0.5
v 0 -5 0.5
v 50 -5 0.5
v 50 5 0.5
v 0 5 0.5
f 1 2 3 4
f 5 8 7 6
f 1 5 6 2
f 2 6 7 3
f 3 7 8 4
f 4 8 5 1
o crossbeams
v 0 -5 -1
v 0 5 -1
v 5 -5 -1
v 5 5 -1
v 10 -5 -1
v 10 5 -1
v 15 -5 -1
v 15 5 -1
v 20 -5 -1
v 20 5 -1
v 25 -5 -1
v 25 5 -1
v 30 -5 -1
v 30 5 -1
v 35 -5 -1
v 35 5 -1
v 40 -5 -1
v 40 5 -1
v 45 -5 -1
v 45 5 -1
v 50 -5 -1
v 50 5 -1
l 9 10
l 11 12
l 13 14
l 15 16
l 17 18
l 19 20
l 21 22
l 23 24
l 25 26
l 27 28
l 29 30
o left_arch_rib
v 0 -6 0
v 5 -4.2 5.4
v 10 -2.8 9.6
v 15 -1.8 12.6
v 20 -1.2 14.4
v 25 -1 15
v 30 -1.2 14.4
v 35 -1.8 12.6
v 40 -2.8 9.6
v 45 -4.2 5.4
v 50 -6 0
l 31 32 33 34 35 36 37 38 39 40 41
o right_arch_rib
v 0 6 0
v 5 4.2 5.4
v 10 2.8 9.6
v 15 1.8 12.6
v 20 1.2 14.4
v 25 1 15
v 30 1.2 14.4
v 35 1.8 12.6
v 40 2.8 9.6
v 45 4.2 5.4
v 50 6 0
l 42 43 44 45 46 47 48 49 50 51 52
o hangers
l 32 11
l 33 13
l 34 15
l 35 17
l 36 19
l 37 21
l 38 23
l 39 25
l 40 27
l 43 12
l 44 14
l 45 16
l 46 18
l 47 20
l 48 22
l 49 24
l 50 26
l 51 28

